<svg width="255" height="100" viewBox="0 0 255 100" fill="none" xmlns="http://www.w3.org/2000/svg">
<rect width="255" height="100" fill="#E5E5E5"/>
<rect width="254.884" height="100" rx="29" fill="white"/>
<path d="M137.929 75V85H131.292V79H124.654V85H118.016V75H114.698L127.973 63L141.248 75H137.929ZM136.823 69.093V64H133.504V66.093L136.823 69.093Z" fill="#FF0F0F"/>
<path d="M92.3929 36.3242C89.1767 35.3997 86.833 34.2669 85.3616 32.9258C83.9033 31.5716 83.1741 29.9049 83.1741 27.9258C83.1741 25.6862 84.066 23.8372 85.8499 22.3789C87.6468 20.9076 89.9775 20.1719 92.8421 20.1719C94.7952 20.1719 96.5335 20.5495 98.0569 21.3047C99.5934 22.0599 100.778 23.1016 101.612 24.4297C102.458 25.7578 102.881 27.2096 102.881 28.7852H99.1116C99.1116 27.0664 98.5647 25.7188 97.471 24.7422C96.3772 23.7526 94.8343 23.2578 92.8421 23.2578C90.9931 23.2578 89.5478 23.668 88.5061 24.4883C87.4775 25.2956 86.9632 26.4219 86.9632 27.8672C86.9632 29.026 87.4515 30.0091 88.428 30.8164C89.4176 31.6107 91.0908 32.3398 93.4476 33.0039C95.8173 33.668 97.6663 34.4036 98.9944 35.2109C100.336 36.0052 101.325 36.9362 101.963 38.0039C102.614 39.0716 102.94 40.3281 102.94 41.7734C102.94 44.0781 102.041 45.9271 100.244 47.3203C98.4476 48.7005 96.0452 49.3906 93.0374 49.3906C91.0843 49.3906 89.2614 49.0195 87.5686 48.2773C85.8759 47.5221 84.5673 46.4935 83.6429 45.1914C82.7314 43.8893 82.2757 42.4115 82.2757 40.7578H86.0452C86.0452 42.4766 86.6767 43.8372 87.9397 44.8398C89.2158 45.8294 90.915 46.3242 93.0374 46.3242C95.0166 46.3242 96.5335 45.9206 97.5882 45.1133C98.6429 44.306 99.1702 43.2057 99.1702 41.8125C99.1702 40.4193 98.6819 39.3451 97.7054 38.5898C96.7288 37.8216 94.958 37.0664 92.3929 36.3242ZM112.1 22.75V27.8672H116.045V30.6602H112.1V43.7656C112.1 44.612 112.276 45.25 112.627 45.6797C112.979 46.0964 113.578 46.3047 114.424 46.3047C114.841 46.3047 115.414 46.2266 116.143 46.0703V49C115.192 49.2604 114.268 49.3906 113.369 49.3906C111.755 49.3906 110.537 48.9023 109.717 47.9258C108.897 46.9492 108.487 45.5625 108.487 43.7656V30.6602H104.639V27.8672H108.487V22.75H112.1ZM133.33 49C133.122 48.5833 132.953 47.8411 132.823 46.7734C131.143 48.5182 129.138 49.3906 126.807 49.3906C124.724 49.3906 123.011 48.8047 121.67 47.6328C120.342 46.4479 119.678 44.9505 119.678 43.1406C119.678 40.9401 120.511 39.2344 122.178 38.0234C123.858 36.7995 126.214 36.1875 129.248 36.1875H132.764V34.5273C132.764 33.2643 132.386 32.2617 131.631 31.5195C130.876 30.7643 129.763 30.3867 128.291 30.3867C127.002 30.3867 125.922 30.7122 125.049 31.3633C124.177 32.0143 123.741 32.8021 123.741 33.7266H120.108C120.108 32.6719 120.479 31.6562 121.221 30.6797C121.976 29.6901 122.992 28.9089 124.268 28.3359C125.557 27.763 126.97 27.4766 128.506 27.4766C130.941 27.4766 132.849 28.0885 134.229 29.3125C135.609 30.5234 136.325 32.1966 136.377 34.332V44.0586C136.377 45.9987 136.625 47.5417 137.119 48.6875V49H133.33ZM127.334 46.2461C128.467 46.2461 129.541 45.9531 130.557 45.3672C131.573 44.7812 132.308 44.0195 132.764 43.082V38.7461H129.932C125.505 38.7461 123.291 40.0417 123.291 42.6328C123.291 43.7656 123.669 44.651 124.424 45.2891C125.179 45.9271 126.149 46.2461 127.334 46.2461ZM152.256 31.1094C151.709 31.0182 151.117 30.9727 150.479 30.9727C148.109 30.9727 146.501 31.9818 145.655 34V49H142.041V27.8672H145.557L145.616 30.3086C146.8 28.4206 148.48 27.4766 150.655 27.4766C151.358 27.4766 151.892 27.5677 152.256 27.75V31.1094ZM161.475 22.75V27.8672H165.42V30.6602H161.475V43.7656C161.475 44.612 161.651 45.25 162.002 45.6797C162.354 46.0964 162.953 46.3047 163.799 46.3047C164.216 46.3047 164.789 46.2266 165.518 46.0703V49C164.567 49.2604 163.643 49.3906 162.744 49.3906C161.13 49.3906 159.912 48.9023 159.092 47.9258C158.272 46.9492 157.862 45.5625 157.862 43.7656V30.6602H154.014V27.8672H157.862V22.75H161.475Z" fill="#FF0505"/>
</svg>
