<svg width="70" height="49" viewBox="0 0 70 49" fill="none" xmlns="http://www.w3.org/2000/svg">
<rect width="70" height="49" fill="white"/>
<path d="M26 20.093V15H23V17.093L26 20.093ZM30 26L18 14L6 26H9V36H16V31H20V36H27V26H30ZM25 34H22V29H14V34H11V23.74L18 16.828L25 23.818V34Z" fill="#DDDDDD"/>
<path fill-rule="evenodd" clip-rule="evenodd" d="M46 19V12H59V22H64V36H41V19H46ZM46 35V31H45V35H46ZM54 31H51V35H54V31ZM60 31H59V35H60V31ZM62 24H59V30H61V34H62V24ZM57 14H48V34H49V29H56V34H57V14ZM44 34V30H46V21H43V34H44ZM61 28H60V26H61V28ZM44 26H45V28H44V26ZM52 27H50V25H52V27ZM55 27H53V25H55V27ZM45 23V25H44V23H45ZM52 24H50V22H52V24ZM55 24H53V22H55V24ZM52 21H50V19H52V21ZM55 21H53V19H55V21ZM52 18H50V16H52V18ZM55 18H53V16H55V18Z" fill="#DDDDDD"/>
</svg>
